<?xml version="1.0" encoding="utf-8"?>
<!DOCTYPE svg PUBLIC "-//W3C//DTD SVG 1.1//EN" "http://www.w3.org/Graphics/SVG/1.1/DTD/svg11.dtd">
<svg version="1.1" id="Layer_1" xmlns="http://www.w3.org/2000/svg" xmlns:xlink="http://www.w3.org/1999/xlink" x="0px" y="0px"
	 viewBox="0 0 40 62" enable-background="new 0 0 40 62" xml:space="preserve">
<path fill="#999999" d="M38.909,47.204c0.612-0.749,1.096-1.634,1.091-2.709c-0.008-1.836-1.358-3.832-4.98-7.367
	c-4.061-3.962-2.822-17.957-2.002-23.015c0.055-0.338-0.066-0.708-0.309-0.949L19.445,0L0,19.299l31.573,31.335l0,0
	c0.167,0.166,0.555,0.579,0.555,0.842c0,0.539-0.465,1.126-1.003,1.806c-0.82,1.037-1.841,2.327-1.841,4.248
	c0,2.507,1.883,4.47,4.287,4.47c2.306,0,4.182-2.005,4.182-4.47c0-1.916-0.998-3.221-1.8-4.269
	c-0.525-0.686-0.978-1.279-0.978-1.812c0-0.126,0-0.269,0.454-0.72L38.909,47.204z M37.792,44.504
	c0.002,0.351-0.138,0.708-0.456,1.137l-8.06-7.999l2.196-2.18c0.502,1.294,1.156,2.404,2,3.228
	C36.454,41.601,37.787,43.394,37.792,44.504z M19.445,3.1l11.307,11.222c-0.092,0.633-0.243,1.746-0.388,3.169l-4.155-0.547
	c-0.603-0.08-1.16,0.342-1.24,0.942c-0.08,0.6,0.345,1.151,0.949,1.231l4.252,0.56c-0.023,0.309-0.045,0.627-0.065,0.951
	l-4.101-0.065c-0.618-0.006-1.112,0.473-1.122,1.078c-0.01,0.605,0.477,1.103,1.087,1.113l4.032,0.064
	c-0.011,0.343-0.02,0.691-0.026,1.041l-3.648,0.353c-0.607,0.059-1.051,0.595-0.992,1.197c0.056,0.566,0.536,0.99,1.098,0.99
	c0.036,0,0.072-0.002,0.109-0.005l3.438-0.333c0.009,0.397,0.022,0.795,0.04,1.192l-3.036,0.624
	c-0.597,0.123-0.981,0.703-0.857,1.295c0.108,0.518,0.568,0.874,1.08,0.874c0.074,0,0.15-0.007,0.225-0.023l2.745-0.564
	c0.124,1.253,0.309,2.475,0.574,3.62l-3.037,3.014l-20.756-20.6L19.445,3.1z M35.545,57.53c0,1.12-0.738,2.278-1.974,2.278
	c-1.033,0-2.079-0.783-2.079-2.278c0-1.163,0.665-2.004,1.37-2.894c0.238-0.301,0.478-0.604,0.694-0.923
	c0.2,0.3,0.42,0.588,0.638,0.873C34.889,55.494,35.545,56.352,35.545,57.53z M33.549,49.496l-0.412-0.409
	c-0.001-0.001-0.001-0.002-0.002-0.002l0,0L3.123,19.299l2.274-2.256L35.822,47.24L33.549,49.496z M23.413,9.421
	c-1.098-1.089-2.557-1.69-4.11-1.69c-1.552,0-3.012,0.6-4.11,1.69c-2.266,2.249-2.266,5.909,0,8.158
	c1.098,1.09,2.558,1.69,4.11,1.69c1.553,0,3.012-0.6,4.11-1.69C25.679,15.33,25.679,11.67,23.413,9.421z M21.851,16.03
	c-0.681,0.676-1.586,1.048-2.548,1.048c-0.963,0-1.868-0.372-2.548-1.048c-1.405-1.395-1.405-3.664,0-5.058
	c0.681-0.676,1.586-1.048,2.548-1.048c0.963,0,1.868,0.372,2.548,1.048C23.256,12.366,23.256,14.635,21.851,16.03z"/>
</svg>
